<svg width="24" height="24" viewBox="0 0 24 24" fill="none" xmlns="http://www.w3.org/2000/svg">
  <path d="M3 4H11C11.5523 4 12 4.44772 12 5V19C12 19.5523 11.5523 20 11 20H3C2.44772 20 2 19.5523 2 19V5C2 4.44772 2.44772 4 3 4Z" stroke="#6B6B6B" stroke-linecap="round" stroke-linejoin="round"/>
  <path d="M13 4H21C21.5523 4 22 4.44772 22 5V19C22 19.5523 21.5523 20 21 20H13C12.4477 20 12 19.5523 12 19V5C12 4.44772 12.4477 4 13 4Z" stroke="#6B6B6B" stroke-linecap="round" stroke-linejoin="round"/>
  <path d="M6 8H8" stroke="#6B6B6B" stroke-linecap="sharp"/>
  <path d="M6 12H8" stroke="#6B6B6B" stroke-linecap="sharp"/>
  <path d="M6 16H8" stroke="#6B6B6B" stroke-linecap="sharp"/>
  <path d="M16 8H18" stroke="#6B6B6B" stroke-linecap="sharp"/>
  <path d="M16 12H18" stroke="#6B6B6B" stroke-linecap="sharp"/>
  <path d="M16 16H18" stroke="#6B6B6B" stroke-linecap="sharp"/>
</svg>
