<svg xmlns:xlink="http://www.w3.org/1999/xlink" xmlns="http://www.w3.org/2000/svg" width="24" height="24" fill="none" viewBox="0 0 24 24"><path fill="#6B6B6B" fill-rule="evenodd" d="M4.385 12c0 .55.2 1.02.59 1.41.39.4.86.59 1.41.59s1.02-.2 1.41-.59c.4-.39.59-.86.59-1.41s-.2-1.02-.59-1.41a1.93 1.93 0 0 0-1.41-.59c-.55 0-1.02.2-1.41.59-.4.39-.59.86-.59 1.41m5.62 0c0 .55.2 1.02.58 1.41.4.4.87.59 1.42.59s1.02-.2 1.41-.59c.4-.39.59-.86.59-1.41s-.2-1.02-.59-1.41a1.93 1.93 0 0 0-1.41-.59c-.55 0-1.03.2-1.42.59s-.58.86-.58 1.41m5.6 0c0 .55.2 1.02.58 1.41.4.4.87.59 1.43.59s1.03-.2 1.42-.59.58-.86.58-1.41-.2-1.02-.58-1.41a1.93 1.93 0 0 0-1.42-.59c-.56 0-1.04.2-1.43.59s-.58.86-.58 1.41" clip-rule="evenodd"></path></svg>