<svg xmlns:xlink="http://www.w3.org/1999/xlink" xmlns="http://www.w3.org/2000/svg" width="24" height="24" fill="none" viewBox="0 0 24 24" aria-label="Stats"><path stroke="#6B6B6B" d="M2.75 19h4.5a.25.25 0 0 0 .25-.25v-6.5a.25.25 0 0 0-.25-.25h-4.5a.25.25 0 0 0-.25.25v6.5c0 .138.112.25.25.25ZM9.75 19h4.5a.25.25 0 0 0 .25-.25V8.25a.25.25 0 0 0-.25-.25h-4.5a.25.25 0 0 0-.25.25v10.5c0 .138.112.25.25.25ZM16.75 19h4.5a.25.25 0 0 0 .25-.25V4.25a.25.25 0 0 0-.25-.25h-4.5a.25.25 0 0 0-.25.25v14.5c0 .138.112.25.25.25Z" fill="none"></path></svg>