<svg xmlns:xlink="http://www.w3.org/1999/xlink" xmlns="http://www.w3.org/2000/svg" width="29" height="29" class="abw afv afw" aria-label="responses"><path d="M21.27 20.058c1.89-1.826 2.754-4.17 2.754-6.674C24.024 8.21 19.67 4 14.1 4S4 8.21 4 13.384s4.53 9.385 10.1 9.385c1.007 0 2-.14 2.95-.41.285.25.592.49.918.7 1.306.87 2.716 1.31 4.19 1.31.276-.01.494-.14.6-.36a.63.63 0 0 0-.052-.65c-.61-.84-1.042-1.71-1.282-2.58a5.4 5.4 0 0 1-.154-.75zm-3.85 1.324-.083-.28-.388.12a9.7 9.7 0 0 1-2.85.424c-4.96 0-8.99-3.706-8.99-8.262s4.03-8.263 8.99-8.263c4.95 0 8.77 3.71 8.77 8.27 0 2.25-.75 4.35-2.5 5.92l-.24.21v.32c0 .07 0 .19.02.37.03.29.1.6.19.92.19.7.49 1.4.89 2.08-.93-.14-1.83-.49-2.67-1.06-.34-.22-.88-.48-1.16-.74z" fill="#242424"></path></svg>